<?xml version="1.0" encoding="utf-8"?>
<!-- Generator: Adobe Illustrator 22.1.0, SVG Export Plug-In . SVG Version: 6.00 Build 0)  -->
<svg version="1.1" id="an_x5F_cc_x5F_app_x5F_RGB" xmlns="http://www.w3.org/2000/svg" xmlns:xlink="http://www.w3.org/1999/xlink"
	 x="0px" y="0px" viewBox="0 0 240 234" style="enable-background:new 0 0 240 234;" xml:space="preserve">
<style type="text/css">
	.st0{fill:#FF4A19;}
	.st1{fill:#FFFFFF;}
</style>
<rect class="st0" width="240" height="234"/>
<rect x="10" y="10" class="st1" width="220" height="214"/>
<path class="st0" d="M67,132.4l-8,29.9c-0.2,0.8-0.5,0.9-1.5,0.9H42.8c-1,0-1.2-0.3-1-1.5l28.5-99.6c0.5-1.8,0.8-2.9,1-7.9
	c0-0.7,0.3-1,0.8-1h21c0.7,0,1,0.2,1.2,1l31.9,107.7c0.2,0.8,0,1.3-0.8,1.3h-16.5c-0.8,0-1.3-0.1-1.5-0.7l-8.3-30.1H67z M94.9,115.9
	c-2.8-11.1-9.4-35.2-11.9-47h-0.2c-2.1,11.7-7.4,31.4-11.6,47H94.9z M135.6,98.4c0-1,0-4.5-0.5-10.3c0-0.7,0.2-0.8,0.9-1.2
	c8.4-3.1,19.4-6.6,30.8-6.6c14.1,0,29.5,5.5,29.5,29.6v52c0,1-0.3,1.3-1.2,1.3h-15c-1,0-1.3-0.5-1.3-1.3v-50.6
	c0-9.6-3.4-14.9-13.3-14.9c-4.3,0-8.4,0.8-11.3,1.8v63.9c0,0.7-0.3,1.2-1,1.2h-16.3c-0.8,0-1.2-0.3-1.2-1.2L135.6,98.4L135.6,98.4z"
	/>
</svg>
