<svg id="Layer_1" data-name="Layer 1" xmlns="http://www.w3.org/2000/svg" xmlns:xlink="http://www.w3.org/1999/xlink" viewBox="0 0 149 149"><defs><style>.cls-1{fill:url(#linear-gradient);}</style><linearGradient id="linear-gradient" x1="0.98" y1="0.72" x2="157.76" y2="154.36" gradientUnits="userSpaceOnUse"><stop offset="0" stop-color="#072142"/><stop offset="0.53" stop-color="#8c2b7a"/><stop offset="1" stop-color="#ff4d5a"/></linearGradient></defs><title>animation</title><path class="cls-1" d="M3.82,80.8V16.24c0-6.38,6-12.42,12.42-12.42h14.9a2.49,2.49,0,0,1,0,5H16.24c-3.62,0-7.45,3.83-7.45,7.45V80.8a2.49,2.49,0,1,1-5,0Zm136.58-77H115.57a2.49,2.49,0,0,0,0,5H140.4c3.63,0,7.45,3.83,7.45,7.45v89.4c0,3.62-3.82,7.45-7.45,7.45H16.24c-3.62,0-7.45-3.83-7.45-7.45V93.22H140.4a2.49,2.49,0,1,0,0-5H6.3a2.49,2.49,0,0,0-2.48,2.49v14.9c0,6.38,6,12.41,12.42,12.41H140.4c6.39,0,12.42-6,12.42-12.41V16.24c0-6.38-6-12.42-12.42-12.42ZM73.35,103.15a5,5,0,1,0,5-5,5,5,0,0,0-5,5Zm32.29,44.7h-2.49v-2.48a2.48,2.48,0,1,0-5,0v2.48h-5v-2.48a2.49,2.49,0,0,0-5,0v2.48h-5v-2.48a2.49,2.49,0,0,0-5,0v2.48h-5v-2.48a2.48,2.48,0,1,0-5,0v2.48h-5v-2.48a2.49,2.49,0,0,0-5,0v2.48h-5v-2.48a2.49,2.49,0,0,0-5,0v2.48h-5v-2.48a2.48,2.48,0,1,0-5,0v2.48h-5v-2.48a2.49,2.49,0,0,0-5,0v2.48h-5v-2.48a2.49,2.49,0,0,0-5,0v2.48H16.24a2.49,2.49,0,1,0,0,5h89.4a2.49,2.49,0,0,0,0-5ZM68.39,135.44V125.5a2.49,2.49,0,0,0-5,0v9.94a2.49,2.49,0,0,0,5,0Zm22.35,2.48a2.48,2.48,0,0,0,2.48-2.48V125.5a2.49,2.49,0,0,0-5,0v9.94a2.49,2.49,0,0,0,2.49,2.48Zm52.15,9.93v2.49a2.48,2.48,0,0,1-2.49,2.48H120.54a2.49,2.49,0,0,1-2.49-2.48v-2.49a10,10,0,0,1,9.94-9.93h5a10,10,0,0,1,9.94,9.93Zm-5,0a5,5,0,0,0-5-5h-5a5,5,0,0,0-5,5Zm-76-92.74,35.5-20.64a2.51,2.51,0,0,0,0-4.35L61.7,10.31a2.5,2.5,0,0,0-2.43,4.37L91.1,32.35,63.15,48.6V25.21a2.5,2.5,0,0,0-5,0V53a2.53,2.53,0,0,0,2.5,2.5A2.56,2.56,0,0,0,61.91,55.11Zm72.64,9H72.85a8.11,8.11,0,0,0-15.45,0H22.09a2.5,2.5,0,0,0,0,5H57.4a8.12,8.12,0,0,0,15.45,0h61.7a2.5,2.5,0,0,0,0-5Zm-.06,11.55H130a8.12,8.12,0,0,0-15.45,0H50.22a8.12,8.12,0,0,0-15.45,0H22a2.5,2.5,0,0,0,0,5H34.77a8.11,8.11,0,0,0,15.45,0H114.5a8.11,8.11,0,0,0,15.45,0h4.54a2.5,2.5,0,0,0,0-5ZM115.17,55h19.67a2.5,2.5,0,0,0,0-5H117.67V14.2a2.5,2.5,0,0,0-5,0V52.47A2.5,2.5,0,0,0,115.17,55ZM21.75,55H41.42a2.5,2.5,0,0,0,2.5-2.5V14.2a2.5,2.5,0,0,0-5,0V50H21.75a2.5,2.5,0,0,0,0,5Zm-.26-10.7h7.37a2.5,2.5,0,0,0,0-5H21.49a2.5,2.5,0,0,0,0,5Zm0-11.86h2.75a2.5,2.5,0,0,0,0-5H21.49a2.5,2.5,0,0,0,0,5Zm0-11.86H33a2.5,2.5,0,0,0,0-5H21.49a2.5,2.5,0,0,0,0,5ZM65.13,69.7a3.13,3.13,0,1,1,3.12-3.12A3.13,3.13,0,0,1,65.13,69.7ZM42.49,81.26a3.13,3.13,0,1,1,3.13-3.13A3.13,3.13,0,0,1,42.49,81.26Zm79.73,0a3.13,3.13,0,1,1,3.12-3.13A3.13,3.13,0,0,1,122.22,81.26Z" transform="translate(-3.82 -3.82)"/></svg>